{"glyphs":{":":{"x_min":0,"x_max":272,"ha":272,"o":"m 49 385 q 49 421 74 447 q 100 472 136 472 q 173 472 199 447 q 224 422 224 385 q 224 349 198 323 q 172 297 136 297 q 100 297 74 323 q 49 349 49 385 z m 49 78 q 49 114 74 140 q 100 166 136 166 q 173 166 199 141 q 224 115 224 78 q 224 42 198 17 q 172 -9 136 -9 q 100 -9 74 16 q 49 42 49 78 z"},"$":{"x_min":0,"x_max":545,"ha":545,"o":"m 229 445 l 229 571 q 200 567 183 552 q 167 536 167 512 q 167 487 183 469 q 199 452 229 445 z m 229 -112 l 229 1 q 182 4 134 22 q 87 41 42 73 l 42 200 q 113 153 155 135 q 196 116 229 116 l 229 293 q 132 318 83 368 q 34 418 34 490 q 34 569 85 619 q 137 670 229 681 l 229 751 l 306 751 l 306 683 q 345 681 385 667 q 424 654 467 630 l 467 505 q 429 535 389 552 q 349 568 306 572 l 306 421 q 412 385 460 334 q 509 282 509 207 q 509 120 455 65 q 401 10 306 3 l 306 -112 z m 306 122 q 339 126 357 145 q 376 163 376 190 q 376 215 359 233 q 343 251 306 265 z"},"?":{"x_min":0,"x_max":398,"ha":398,"o":"m 86 78 q 86 114 111 140 q 137 166 173 166 q 210 166 236 141 q 261 115 261 78 q 261 42 235 17 q 209 -9 173 -9 q 137 -9 111 16 q 86 42 86 78 z m 199 220 l 152 218 q 134 234 125 258 q 116 282 116 315 q 116 346 122 372 q 128 397 141 421 q 148 435 164 460 q 196 511 196 537 q 196 562 181 577 q 166 592 141 592 q 124 592 101 584 q 78 576 45 557 l 67 674 q 99 686 126 691 q 153 697 177 697 q 259 697 304 660 q 349 624 349 558 q 349 516 331 475 q 313 435 265 374 q 263 372 260 368 q 199 293 199 220 z"},"<":{"x_min":0,"x_max":833,"ha":833,"o":"m 704 583 l 704 476 l 268 298 l 704 120 l 704 13 l 129 250 l 129 347 z"},"'":{"x_min":0,"x_max":172,"ha":172,"o":"m 39 702 l 133 702 l 133 429 l 39 429 z"},"=":{"x_min":0,"x_max":833,"ha":833,"o":"m 124 242 l 709 242 l 709 145 l 124 145 z m 124 452 l 709 452 l 709 355 l 124 355 z"},"a":{"x_min":0,"x_max":516,"ha":516,"o":"m 296 111 l 296 224 q 221 198 196 178 q 171 158 171 131 q 171 108 185 95 q 198 82 222 82 q 238 82 257 89 q 275 97 296 111 z m 303 43 q 271 17 235 4 q 200 -9 159 -9 q 92 -9 58 24 q 24 56 24 120 q 24 176 74 212 q 125 248 296 297 q 296 299 297 302 q 297 305 297 310 q 297 343 275 359 q 252 375 206 375 q 167 375 126 356 q 85 337 46 301 l 48 416 q 90 444 140 458 q 191 472 254 472 q 354 472 399 434 q 444 395 444 310 l 444 126 q 444 110 448 104 q 453 97 463 97 q 472 97 482 100 q 492 102 509 109 l 509 28 q 469 9 439 0 q 408 -9 381 -9 q 346 -9 326 4 q 307 17 303 43 z"},"L":{"x_min":0,"x_max":542,"ha":542,"o":"m 67 0 l 67 683 l 238 683 l 238 132 l 532 132 l 532 0 z"},"3":{"x_min":0,"x_max":545,"ha":545,"o":"m 46 32 l 46 164 q 90 136 126 123 q 162 110 198 110 q 255 110 285 133 q 315 156 315 200 q 315 242 285 267 q 256 292 202 294 l 202 416 q 250 417 279 441 q 307 465 307 504 q 307 538 279 559 q 251 579 204 579 q 171 579 138 570 q 106 561 70 541 l 70 658 q 104 676 146 685 q 188 694 241 694 q 341 694 400 647 q 459 600 459 521 q 459 470 434 432 q 410 394 358 366 q 418 343 448 298 q 478 254 478 188 q 478 96 412 42 q 347 -12 234 -12 q 175 -12 128 -1 q 81 10 46 32 z"},";":{"x_min":0,"x_max":272,"ha":272,"o":"m 49 385 q 49 421 74 447 q 100 472 136 472 q 173 472 199 447 q 224 422 224 385 q 224 349 198 323 q 172 297 136 297 q 100 297 74 323 q 49 349 49 385 z m 97 4 q 75 11 62 31 q 49 51 49 78 q 49 114 74 140 q 100 166 136 166 q 179 166 204 137 q 229 109 229 60 q 229 -17 177 -75 q 125 -134 44 -147 l 44 -118 q 71 -89 84 -61 q 97 -32 97 -3 z"},"J":{"x_min":0,"x_max":322,"ha":322,"o":"m -27 -64 q 36 -62 58 -38 q 79 -13 79 70 l 79 683 l 250 683 l 250 64 q 250 -80 201 -137 q 153 -195 34 -199 z"},"V":{"x_min":0,"x_max":678,"ha":678,"o":"m 291 -6 l -19 683 l 164 683 l 333 286 l 513 683 l 698 683 l 365 -6 z"},"\"":{"x_min":0,"x_max":331,"ha":331,"o":"m 198 702 l 292 702 l 292 429 l 198 429 z m 39 702 l 133 702 l 133 429 l 39 429 z"},"7":{"x_min":0,"x_max":545,"ha":545,"o":"m 120 31 l 316 550 l 41 550 l 41 683 l 519 683 l 256 -21 z"},"S":{"x_min":0,"x_max":597,"ha":597,"o":"m 56 54 l 56 206 q 133 158 186 139 q 239 120 289 120 q 339 120 365 135 q 391 151 391 181 q 391 206 375 220 q 359 235 300 256 q 154 307 99 361 q 44 414 44 497 q 44 584 115 639 q 187 694 302 694 q 360 694 418 680 q 477 666 534 638 l 534 498 q 465 533 411 549 q 356 566 311 566 q 262 566 237 552 q 211 538 211 511 q 211 490 234 471 q 257 452 303 435 q 313 431 333 424 q 431 388 473 362 q 518 334 540 292 q 563 249 563 191 q 563 96 491 42 q 420 -12 293 -12 q 229 -12 170 4 q 111 21 56 54 z"},"}":{"x_min":0,"x_max":500,"ha":500,"o":"m 70 721 l 103 721 q 157 721 189 715 q 222 709 244 697 q 272 681 283 652 q 295 623 295 555 l 295 432 q 295 365 320 337 q 345 309 404 309 q 407 309 414 310 q 420 310 424 310 l 424 208 l 406 208 q 345 208 320 181 q 295 153 295 86 l 295 -37 q 295 -107 283 -135 q 272 -164 244 -179 q 221 -191 188 -197 q 156 -203 107 -203 q 101 -203 89 -203 q 77 -202 70 -202 l 70 -100 q 74 -100 82 -101 q 90 -101 93 -101 q 142 -101 159 -82 q 177 -63 177 -4 l 177 113 q 177 186 199 216 q 221 246 278 259 q 221 272 199 302 q 177 333 177 405 l 177 523 q 177 583 159 601 q 142 620 93 620 q 90 620 82 620 q 74 619 70 619 z"},"Z":{"x_min":0,"x_max":685,"ha":685,"o":"m 3 0 l 379 556 l 34 556 l 34 683 l 670 683 l 297 132 l 668 132 l 668 0 z"},"x":{"x_min":0,"x_max":537,"ha":537,"o":"m -12 0 l 173 235 l -8 463 l 168 463 l 262 334 l 358 463 l 534 463 l 355 236 l 546 0 l 367 0 l 266 138 l 164 0 z"},")":{"x_min":0,"x_max":362,"ha":362,"o":"m 92 694 q 201 605 261 486 q 322 366 322 238 q 322 115 262 -5 q 202 -125 91 -224 l -15 -224 q 77 -122 121 -9 q 165 103 165 235 q 165 372 121 485 q 76 598 -15 694 z"},"&":{"x_min":0,"x_max":726,"ha":726,"o":"m 369 146 l 253 280 q 216 255 200 233 q 185 212 185 186 q 185 151 208 128 q 230 106 266 106 q 292 106 317 116 q 343 126 369 146 z m 501 0 l 452 53 q 403 21 350 4 q 296 -12 239 -12 q 144 -12 83 40 q 22 91 22 170 q 22 229 58 278 q 93 326 172 373 q 135 421 121 453 q 107 485 107 516 q 107 595 166 645 q 225 695 320 695 q 409 695 463 651 q 517 606 517 535 q 517 482 487 438 q 457 395 394 357 l 487 251 q 520 293 536 317 q 552 340 559 357 l 713 357 q 677 284 644 235 q 610 186 574 153 l 707 0 z m 319 442 q 353 460 369 481 q 385 501 385 526 q 385 552 368 568 q 351 584 322 584 q 294 584 276 570 q 258 555 258 533 q 258 516 272 495 q 286 475 319 442 z"},"_":{"x_min":0,"x_max":500,"ha":500,"o":"m 0 -136 l 500 -136 l 500 -236 l 0 -236 z"},"v":{"x_min":0,"x_max":478,"ha":478,"o":"m 198 -9 l -16 463 l 138 463 l 240 212 l 336 463 l 488 463 l 287 -9 z"},"O":{"x_min":0,"x_max":809,"ha":809,"o":"m 209 341 q 209 250 264 191 q 319 132 404 132 q 489 132 544 191 q 599 250 599 341 q 599 433 544 492 q 489 551 404 551 q 319 551 264 492 q 209 433 209 341 z m 33 341 q 33 417 60 482 q 87 546 140 597 q 192 646 258 670 q 323 694 404 694 q 485 694 551 670 q 617 646 669 597 q 722 546 749 482 q 776 417 776 341 q 776 265 749 200 q 722 136 669 86 q 617 37 551 12 q 484 -12 404 -12 q 324 -12 258 12 q 192 37 140 86 q 87 136 60 200 q 33 265 33 341 z"},"(":{"x_min":0,"x_max":362,"ha":362,"o":"m 270 -224 q 161 -136 101 -15 q 41 105 41 233 q 41 356 100 475 q 160 594 271 694 l 377 694 q 285 591 241 480 q 197 368 197 236 q 197 99 242 -15 q 287 -129 378 -224 z"},"C":{"x_min":0,"x_max":699,"ha":699,"o":"m 665 57 q 604 22 539 5 q 475 -12 404 -12 q 324 -12 257 12 q 189 37 139 84 q 87 133 60 199 q 33 265 33 341 q 33 500 139 597 q 246 695 420 695 q 482 695 542 681 q 601 667 659 639 l 659 479 q 603 516 545 534 q 488 552 431 552 q 328 552 268 496 q 209 439 209 341 q 209 245 266 188 q 322 131 418 131 q 479 131 542 153 q 604 174 665 217 z"},"W":{"x_min":0,"x_max":979,"ha":979,"o":"m 265 -6 l -12 683 l 166 683 l 299 311 l 433 683 l 547 683 l 681 311 l 813 683 l 992 683 l 715 -6 l 644 -6 l 490 421 l 335 -6 z"},"A":{"x_min":0,"x_max":721,"ha":721,"o":"m 266 250 l 468 250 l 372 510 z m -20 0 l 278 683 l 475 683 l 741 0 l 560 0 l 511 133 l 217 133 l 162 0 z"},"f":{"x_min":0,"x_max":287,"ha":287,"o":"m 65 0 l 65 364 l -1 364 l -1 463 l 65 463 l 65 514 q 65 604 113 647 q 161 691 258 691 q 273 691 292 689 q 310 687 333 683 l 333 572 q 317 575 304 577 q 291 578 280 578 q 243 578 227 557 q 211 537 211 485 l 211 463 l 272 463 l 272 364 l 211 364 l 211 0 z"},"Q":{"x_min":0,"x_max":809,"ha":809,"o":"m 209 341 q 209 250 264 191 q 319 132 404 132 q 489 132 544 191 q 599 250 599 341 q 599 433 544 492 q 489 551 404 551 q 319 551 264 492 q 209 433 209 341 z m 310 0 q 177 34 105 123 q 33 212 33 341 q 33 417 60 482 q 87 546 140 597 q 192 646 258 670 q 323 694 404 694 q 485 694 551 670 q 617 646 669 597 q 721 548 748 484 q 776 420 776 349 q 776 225 715 138 q 654 51 538 9 q 579 -15 623 -27 q 667 -40 706 -40 q 722 -40 738 -37 q 753 -34 769 -27 l 782 -45 l 659 -158 l 650 -158 q 562 -158 473 -117 q 384 -75 310 0 z"},"w":{"x_min":0,"x_max":759,"ha":759,"o":"m 189 -9 l -22 463 l 132 463 l 234 212 l 338 463 l 413 463 l 521 212 l 620 463 l 769 463 l 558 -9 l 487 -9 l 374 249 l 261 -9 z"},"-":{"x_min":0,"x_max":343,"ha":343,"o":"m 39 167 l 39 299 l 303 299 l 303 167 z"},"E":{"x_min":0,"x_max":574,"ha":574,"o":"m 67 0 l 67 683 l 524 683 l 524 557 l 238 557 l 238 418 l 511 418 l 511 291 l 238 291 l 238 128 l 532 128 l 532 0 z"},"s":{"x_min":0,"x_max":412,"ha":412,"o":"m 34 25 l 34 128 q 78 108 115 97 q 153 86 178 86 q 213 86 230 95 q 248 104 248 121 q 248 136 235 147 q 222 159 175 178 q 170 180 159 185 q 26 240 26 326 q 26 392 75 432 q 124 472 205 472 q 249 472 287 463 q 326 454 363 435 l 363 333 q 317 357 281 369 q 245 380 215 380 q 188 380 174 371 q 160 361 160 344 q 160 322 239 289 q 271 276 290 268 q 341 246 364 215 q 387 185 387 139 q 387 67 338 29 q 288 -10 197 -10 q 151 -10 111 -1 q 70 7 34 25 z"},">":{"x_min":0,"x_max":833,"ha":833,"o":"m 129 583 l 704 347 l 704 250 l 129 13 l 129 120 l 566 298 l 129 476 z"},"l":{"x_min":0,"x_max":252,"ha":252,"o":"m 53 0 l 53 683 l 199 683 l 199 0 z"},"8":{"x_min":0,"x_max":545,"ha":545,"o":"m 272 305 q 232 305 211 278 q 189 250 189 200 q 189 147 210 120 q 231 93 272 93 q 313 93 334 120 q 355 147 355 200 q 355 250 333 278 q 312 305 272 305 z m 197 496 q 197 453 216 429 q 236 405 272 405 q 308 405 328 429 q 348 453 348 496 q 348 543 329 567 q 310 590 272 590 q 234 590 215 567 q 197 543 197 496 z m 138 364 q 96 386 75 423 q 54 459 54 509 q 54 592 114 643 q 174 694 272 694 q 370 694 431 643 q 491 591 491 509 q 491 459 470 423 q 448 387 406 364 q 458 339 485 296 q 512 253 512 193 q 512 100 447 44 q 381 -12 272 -12 q 163 -12 97 44 q 32 100 32 193 q 32 253 59 296 q 85 339 138 364 z"},"\\":{"x_min":0,"x_max":285,"ha":285,"o":"m 66 694 l 319 -93 l 243 -93 l -12 694 z"},"e":{"x_min":0,"x_max":532,"ha":532,"o":"m 495 51 q 448 20 395 5 q 343 -10 283 -10 q 164 -10 96 56 q 28 121 28 237 q 28 344 94 408 q 161 472 271 472 q 380 472 443 403 q 506 333 506 211 l 506 206 l 178 206 l 178 204 q 178 149 216 117 q 253 85 319 85 q 363 85 407 101 q 451 116 495 147 z m 179 277 l 359 277 q 355 322 332 348 q 309 373 272 373 q 234 373 210 348 q 185 322 179 277 z"},"b":{"x_min":0,"x_max":574,"ha":574,"o":"m 198 133 q 217 118 237 110 q 256 103 278 103 q 331 103 362 137 q 393 172 393 231 q 393 291 362 325 q 332 359 278 359 q 257 359 237 351 q 217 343 198 328 z m 53 27 l 53 683 l 198 683 l 198 429 q 226 452 258 462 q 290 473 329 473 q 430 473 488 408 q 547 343 547 231 q 547 118 474 55 q 400 -9 270 -9 q 222 -9 168 0 q 114 9 53 27 z"},"%":{"x_min":0,"x_max":972,"ha":972,"o":"m 215 -12 l 676 695 l 758 695 l 295 -12 z m 650 191 q 650 152 677 125 q 704 98 743 98 q 782 98 809 125 q 836 152 836 191 q 836 230 809 257 q 782 284 743 284 q 704 284 677 257 q 650 230 650 191 z m 539 191 q 539 276 598 336 q 658 395 743 395 q 828 395 887 336 q 947 276 947 191 q 947 106 887 47 q 828 -12 743 -12 q 658 -12 598 47 q 539 106 539 191 z m 136 490 q 136 451 163 424 q 190 397 229 397 q 268 397 295 424 q 322 451 322 490 q 322 529 295 556 q 268 583 229 583 q 190 583 163 556 q 136 529 136 490 z m 25 490 q 25 576 84 635 q 144 694 229 694 q 314 694 374 635 q 433 575 433 490 q 433 405 374 346 q 314 287 229 287 q 144 287 84 346 q 25 405 25 490 z"},"m":{"x_min":0,"x_max":875,"ha":875,"o":"m 53 0 l 53 463 l 198 463 l 198 405 q 232 439 270 456 q 308 472 354 472 q 406 472 439 451 q 473 430 491 387 q 536 434 575 453 q 615 472 667 472 q 743 472 784 426 q 824 380 824 293 l 824 0 l 678 0 l 678 273 q 678 324 663 346 q 647 368 613 368 q 583 368 557 350 q 531 332 509 295 l 509 0 l 367 0 l 367 273 q 367 324 352 346 q 336 368 302 368 q 272 368 246 350 q 220 332 198 295 l 198 0 z"},"#":{"x_min":0,"x_max":769,"ha":769,"o":"m 346 414 l 303 295 l 426 295 l 468 414 z m 346 715 l 454 715 l 383 512 l 501 512 l 573 715 l 681 715 l 609 512 l 747 512 l 711 414 l 574 414 l 533 296 l 675 296 l 640 198 l 498 198 l 426 -5 l 318 -5 l 390 198 l 271 198 l 198 -5 l 91 -5 l 162 198 l 22 198 l 59 296 l 197 296 l 239 414 l 93 414 l 129 512 l 274 512 z"},",":{"x_min":0,"x_max":272,"ha":272,"o":"m 97 4 q 75 11 62 31 q 49 51 49 78 q 49 114 74 140 q 100 166 136 166 q 179 166 204 137 q 229 109 229 60 q 229 -17 177 -75 q 125 -134 44 -147 l 44 -118 q 71 -89 84 -61 q 97 -32 97 -3 z"},"n":{"x_min":0,"x_max":564,"ha":564,"o":"m 53 0 l 53 463 l 198 463 l 198 405 q 232 440 270 456 q 308 472 356 472 q 432 472 473 426 q 513 380 513 293 l 513 0 l 367 0 l 367 273 q 367 322 351 345 q 335 368 302 368 q 271 368 245 350 q 219 331 198 295 l 198 0 z"},"h":{"x_min":0,"x_max":565,"ha":565,"o":"m 54 0 l 54 683 l 200 683 l 200 405 q 234 440 271 456 q 309 472 357 472 q 433 472 474 426 q 514 380 514 293 l 514 0 l 368 0 l 368 273 q 368 322 352 345 q 336 368 303 368 q 272 368 247 350 q 221 331 200 295 l 200 0 z"},"z":{"x_min":0,"x_max":498,"ha":498,"o":"m 12 0 l 12 12 l 244 359 l 31 359 l 31 463 l 474 463 l 474 449 l 242 104 l 474 104 l 474 0 z"},"B":{"x_min":0,"x_max":676,"ha":676,"o":"m 239 125 l 338 125 q 404 125 433 144 q 461 162 461 205 q 461 249 431 270 q 401 291 337 291 l 239 291 z m 327 413 q 374 413 396 431 q 419 448 419 484 q 419 523 396 543 q 373 562 327 562 l 239 562 l 239 413 z m 67 0 l 67 683 l 319 683 q 454 683 522 639 q 591 595 591 508 q 591 462 568 428 q 544 394 500 374 q 572 352 607 307 q 642 263 642 196 q 642 98 575 49 q 507 0 372 0 z"},"K":{"x_min":0,"x_max":696,"ha":696,"o":"m 72 0 l 72 683 l 243 683 l 243 379 l 475 683 l 667 683 l 425 367 l 727 0 l 505 0 l 243 321 l 243 0 z"},"R":{"x_min":0,"x_max":653,"ha":653,"o":"m 324 403 q 372 403 395 423 q 418 442 418 483 q 418 521 394 542 q 370 562 324 562 l 242 562 l 242 403 z m 71 0 l 71 683 l 323 683 q 462 683 529 635 q 595 586 595 485 q 595 428 566 388 q 537 348 476 320 q 501 311 522 289 q 542 267 557 234 l 666 0 l 473 0 l 386 197 q 365 244 338 261 q 312 279 262 279 q 258 279 252 278 q 246 278 242 278 l 242 0 z"},"T":{"x_min":0,"x_max":646,"ha":646,"o":"m 233 0 l 233 556 l 7 556 l 7 683 l 639 683 l 639 556 l 413 556 l 413 0 z"},"P":{"x_min":0,"x_max":620,"ha":620,"o":"m 320 400 q 368 400 392 419 q 415 438 415 478 q 415 516 391 536 q 366 556 321 556 l 239 556 l 239 400 z m 67 0 l 67 683 l 319 683 q 458 683 524 633 q 591 583 591 479 q 591 373 520 320 q 448 267 305 267 l 239 267 l 239 0 z"},"|":{"x_min":0,"x_max":500,"ha":500,"o":"m 200 764 l 301 764 l 301 -236 l 200 -236 z"},"t":{"x_min":0,"x_max":397,"ha":397,"o":"m 73 362 l 7 362 l 7 393 l 196 598 l 218 598 l 218 463 l 376 463 l 376 362 l 218 362 l 218 191 q 218 138 233 120 q 248 102 288 102 q 308 102 329 108 q 351 113 376 125 l 377 16 q 342 3 307 -3 q 271 -10 237 -10 q 148 -10 111 36 q 73 81 73 192 z"},"M":{"x_min":0,"x_max":875,"ha":875,"o":"m 67 0 l 67 683 l 218 683 l 437 408 l 657 683 l 808 683 l 808 0 l 640 0 l 640 423 l 437 173 l 236 423 l 236 0 z"},"g":{"x_min":0,"x_max":525,"ha":525,"o":"m 145 -83 q 145 -111 172 -126 q 199 -140 253 -140 q 307 -140 335 -126 q 363 -111 363 -84 q 363 -59 335 -44 q 307 -30 256 -30 q 203 -30 174 -44 q 145 -58 145 -83 z m 253 374 q 215 374 193 352 q 170 331 170 295 q 170 259 193 238 q 215 216 253 216 q 291 216 313 238 q 336 259 336 295 q 336 331 313 352 q 291 374 253 374 z m 156 152 q 94 170 64 207 q 34 244 34 302 q 34 380 96 422 q 158 463 276 463 l 511 463 l 511 366 l 446 366 q 457 349 462 329 q 468 310 468 287 q 468 225 431 187 q 394 150 320 137 q 302 134 273 131 q 216 126 216 100 q 216 75 295 67 q 325 64 343 62 q 417 52 456 18 q 495 -17 495 -74 q 495 -149 433 -188 q 370 -227 248 -227 q 136 -227 72 -191 q 9 -155 9 -91 q 9 -50 40 -21 q 72 8 132 24 q 105 32 92 46 q 78 61 78 81 q 78 108 97 125 q 117 143 156 152 z"},"j":{"x_min":0,"x_max":257,"ha":257,"o":"m -13 -101 q 22 -93 40 -69 q 58 -45 58 -4 l 58 463 l 204 463 l 204 0 q 204 -109 163 -163 q 123 -217 32 -227 z m 53 613 q 53 646 76 668 q 98 691 131 691 q 164 691 187 668 q 209 646 209 613 q 209 580 186 558 q 164 535 131 535 q 99 535 76 558 q 53 580 53 613 z"},"i":{"x_min":0,"x_max":252,"ha":252,"o":"m 53 0 l 53 463 l 199 463 l 199 0 z m 48 613 q 48 646 71 668 q 93 691 126 691 q 159 691 182 668 q 204 646 204 613 q 204 580 182 558 q 159 535 126 535 q 93 535 71 558 q 48 581 48 613 z"},"y":{"x_min":0,"x_max":478,"ha":478,"o":"m 176 -227 l 23 -227 l 160 74 l -16 463 l 140 463 l 234 237 l 334 463 l 488 463 z"},"@":{"x_min":0,"x_max":1000,"ha":1000,"o":"m 570 133 q 543 92 508 73 q 473 53 425 53 q 348 53 307 95 q 267 137 267 219 q 267 336 335 415 q 403 494 503 494 q 542 494 571 478 q 600 462 618 430 l 644 478 l 731 478 l 659 186 q 658 181 657 175 q 656 169 656 166 q 656 149 667 140 q 679 132 702 132 q 721 132 742 142 q 763 151 781 169 q 823 208 844 260 q 866 312 866 375 q 866 492 776 568 q 685 643 542 643 q 473 643 414 626 q 354 610 306 577 q 223 521 178 438 q 134 354 134 255 q 134 105 235 15 q 336 -74 505 -74 q 584 -74 659 -50 q 735 -26 800 19 l 840 -38 q 765 -94 681 -123 q 598 -151 507 -151 q 413 -151 334 -127 q 256 -104 195 -57 q 119 2 82 79 q 44 156 44 254 q 44 335 70 409 q 95 483 145 544 q 217 632 319 678 q 420 723 545 723 q 627 723 700 701 q 772 679 826 638 q 892 587 925 521 q 957 456 957 373 q 957 292 925 224 q 893 156 833 108 q 799 81 759 66 q 718 52 675 52 q 623 52 597 72 q 571 93 570 133 z m 594 342 q 588 381 566 402 q 544 423 509 423 q 453 423 412 362 q 371 302 371 217 q 371 172 391 148 q 411 125 448 125 q 489 125 522 156 q 556 187 568 236 z"},".":{"x_min":0,"x_max":272,"ha":272,"o":"m 49 78 q 49 114 74 140 q 100 166 136 166 q 173 166 199 141 q 224 115 224 78 q 224 42 198 17 q 172 -9 136 -9 q 100 -9 74 16 q 49 42 49 78 z"},"p":{"x_min":0,"x_max":572,"ha":572,"o":"m 198 332 l 198 134 q 217 120 237 112 q 257 105 278 105 q 332 105 362 139 q 393 173 393 232 q 393 290 363 325 q 332 361 282 361 q 261 361 240 354 q 219 347 198 332 z m 53 -227 l 53 463 l 193 463 l 193 425 q 222 450 254 461 q 287 473 326 473 q 423 473 484 406 q 545 339 545 231 q 545 124 484 57 q 423 -10 326 -10 q 288 -10 256 1 q 225 12 198 34 l 198 -227 z"},"X":{"x_min":0,"x_max":788,"ha":788,"o":"m -5 0 l 283 354 l 12 683 l 227 683 l 390 483 l 554 683 l 768 683 l 495 356 l 793 0 l 573 0 l 390 223 l 208 0 z"},"*":{"x_min":0,"x_max":505,"ha":505,"o":"m 270 453 l 294 299 l 210 299 l 234 453 l 143 326 l 83 386 l 209 479 l 55 454 l 55 539 l 209 514 l 83 607 l 143 667 l 234 540 l 210 694 l 294 694 l 270 541 l 362 667 l 422 607 l 295 514 l 449 539 l 449 454 l 295 479 l 422 386 l 362 326 z"},"Y":{"x_min":0,"x_max":670,"ha":670,"o":"m 248 0 l 248 309 l -21 683 l 184 683 l 334 462 l 488 683 l 691 683 l 419 310 l 419 0 z"},"c":{"x_min":0,"x_max":473,"ha":473,"o":"m 443 21 q 410 6 374 -1 q 337 -9 295 -9 q 170 -9 98 56 q 25 121 25 231 q 25 340 97 407 q 169 473 289 473 q 327 473 363 466 q 399 458 435 443 l 435 329 q 398 344 367 352 q 337 359 311 359 q 249 359 213 325 q 178 291 178 231 q 178 170 214 136 q 250 103 317 103 q 346 103 376 111 q 407 118 443 134 z"},"!":{"x_min":0,"x_max":324,"ha":324,"o":"m 162 694 q 203 694 223 668 q 243 643 243 591 q 243 532 236 467 q 228 403 213 333 q 212 328 210 318 q 188 211 162 211 q 138 211 123 282 q 119 297 117 306 q 99 386 90 457 q 81 528 81 591 q 81 643 101 668 q 121 694 162 694 z m 74 78 q 74 114 100 140 q 125 166 162 166 q 199 166 225 141 q 250 115 250 78 q 250 42 224 17 q 199 -9 162 -9 q 125 -9 100 17 q 74 42 74 78 z"},"/":{"x_min":0,"x_max":285,"ha":285,"o":"m 219 694 l 296 694 l 42 -93 l -34 -93 z"},"[":{"x_min":0,"x_max":372,"ha":372,"o":"m 58 -215 l 58 683 l 366 683 l 366 572 l 199 572 l 199 -106 l 366 -106 l 366 -215 z"},"6":{"x_min":0,"x_max":545,"ha":545,"o":"m 199 290 q 194 272 192 257 q 190 242 190 227 q 190 176 212 147 q 234 118 273 118 q 313 118 338 145 q 362 172 362 216 q 362 264 338 291 q 315 319 274 319 q 252 319 234 312 q 216 305 199 290 z m 239 412 q 255 419 273 423 q 292 427 311 427 q 400 427 456 370 q 511 312 511 221 q 511 119 446 53 q 380 -12 276 -12 q 167 -12 102 56 q 37 125 37 240 q 37 377 117 501 q 197 624 333 696 l 413 595 q 349 556 305 510 q 262 464 239 412 z"},"r":{"x_min":0,"x_max":428,"ha":428,"o":"m 53 0 l 53 463 l 199 463 l 199 339 q 236 409 271 440 q 305 470 345 470 q 365 470 387 462 q 410 454 437 436 l 398 303 q 376 320 357 328 q 339 336 321 336 q 279 336 246 299 q 213 263 199 199 l 199 0 z"},"2":{"x_min":0,"x_max":545,"ha":545,"o":"m 31 0 l 31 22 q 210 234 262 321 q 314 407 314 470 q 314 520 287 545 q 260 570 206 570 q 173 570 136 552 q 98 534 42 491 l 42 626 q 93 661 147 678 q 200 695 256 695 q 358 695 418 642 q 478 589 478 499 q 478 429 433 349 q 388 269 272 141 l 504 141 l 504 0 z"},"{":{"x_min":0,"x_max":500,"ha":500,"o":"m 431 721 l 431 619 q 427 619 419 620 q 411 620 408 620 q 359 620 342 601 q 324 583 324 522 l 324 405 q 324 333 302 302 q 280 272 223 259 q 280 246 302 216 q 324 186 324 114 l 324 -4 q 324 -64 341 -83 q 358 -101 408 -101 q 411 -101 419 -101 q 427 -100 431 -100 l 431 -202 q 424 -202 412 -203 q 400 -203 394 -203 q 345 -203 312 -197 q 280 -191 257 -179 q 229 -163 218 -135 q 206 -106 206 -37 l 206 86 q 206 153 181 181 q 156 209 97 209 q 94 209 87 208 q 81 208 77 208 l 77 310 q 81 310 87 310 q 94 309 97 309 q 156 309 181 337 q 206 366 206 433 l 206 555 q 206 625 218 653 q 229 682 257 698 q 280 710 312 716 q 345 722 394 722 q 400 722 412 722 q 424 721 431 721 z"},"9":{"x_min":0,"x_max":545,"ha":545,"o":"m 343 393 q 348 411 350 426 q 352 441 352 456 q 352 507 330 536 q 308 565 269 565 q 229 565 204 539 q 180 512 180 468 q 180 420 204 393 q 227 365 268 365 q 289 365 307 372 q 325 378 343 393 z m 303 271 q 288 264 270 260 q 252 257 231 257 q 142 257 86 314 q 30 371 30 462 q 30 564 96 630 q 162 695 266 695 q 375 695 439 627 q 504 559 504 444 q 504 306 424 182 q 345 58 209 -13 l 128 88 q 193 127 237 173 q 281 219 303 271 z"}," ":{"x_min":0,"x_max":273,"ha":273,"o":""},"I":{"x_min":0,"x_max":319,"ha":319,"o":"m 72 0 l 72 683 l 248 683 l 248 0 z"},"H":{"x_min":0,"x_max":780,"ha":780,"o":"m 67 0 l 67 683 l 238 683 l 238 409 l 542 409 l 542 683 l 713 683 l 713 0 l 542 0 l 542 277 l 238 277 l 238 0 z"},"4":{"x_min":0,"x_max":545,"ha":545,"o":"m 295 275 l 297 485 l 129 275 z m 295 0 l 295 169 l 14 169 l 14 284 l 341 691 l 442 691 l 442 275 l 507 275 l 507 169 l 442 169 l 442 0 z"},"~":{"x_min":0,"x_max":833,"ha":833,"o":"m 747 392 l 747 284 q 696 250 651 233 q 606 217 562 217 q 540 217 517 221 q 495 225 472 232 q 460 236 438 244 q 331 281 275 281 q 233 281 188 262 q 143 244 87 204 l 87 312 q 139 347 187 365 q 234 382 276 382 q 333 382 418 354 l 420 353 q 429 350 447 344 q 522 317 564 317 q 605 317 649 335 q 693 353 747 392 z"},"D":{"x_min":0,"x_max":772,"ha":772,"o":"m 238 545 l 238 138 l 365 138 q 452 138 507 195 q 562 252 562 342 q 562 432 507 488 q 452 545 365 545 z m 67 0 l 67 683 l 323 683 q 433 683 494 667 q 554 650 605 612 q 670 562 704 494 q 738 425 738 342 q 738 250 697 176 q 656 102 578 52 q 534 24 481 12 q 428 0 323 0 z"},"^":{"x_min":0,"x_max":1000,"ha":1000,"o":"m 438 713 l 561 713 l 796 439 l 681 439 l 500 620 l 318 439 l 203 439 z"},"0":{"x_min":0,"x_max":545,"ha":545,"o":"m 190 341 q 190 226 210 172 q 230 117 272 117 q 314 117 334 172 q 355 227 355 341 q 355 455 334 510 q 314 566 272 566 q 230 566 210 511 q 190 457 190 341 z m 28 341 q 28 504 94 599 q 161 694 272 694 q 384 694 450 599 q 516 504 516 341 q 516 178 450 83 q 384 -12 272 -12 q 161 -12 94 83 q 28 178 28 341 z"},"F":{"x_min":0,"x_max":546,"ha":546,"o":"m 67 0 l 67 683 l 509 683 l 509 557 l 238 557 l 238 409 l 492 409 l 492 281 l 238 281 l 238 0 z"},"`":{"x_min":0,"x_max":500,"ha":500,"o":"m 322 527 l 258 527 l 114 696 l 222 696 z"},"k":{"x_min":0,"x_max":551,"ha":551,"o":"m 381 0 l 200 240 l 378 463 l 553 463 l 374 240 l 555 0 z m 53 0 l 53 683 l 198 683 l 198 0 z"},"u":{"x_min":0,"x_max":564,"ha":564,"o":"m 366 58 q 332 23 294 7 q 257 -9 209 -9 q 133 -9 92 37 q 51 83 51 170 l 51 463 l 197 463 l 197 190 q 197 141 213 118 q 229 95 262 95 q 292 95 319 114 q 346 132 366 168 l 366 463 l 512 463 l 512 0 l 366 0 z"},"]":{"x_min":0,"x_max":372,"ha":372,"o":"m 314 -215 l 6 -215 l 6 -106 l 172 -106 l 172 572 l 6 572 l 6 683 l 314 683 z"},"U":{"x_min":0,"x_max":771,"ha":771,"o":"m 708 683 l 708 292 q 708 148 623 68 q 538 -12 385 -12 q 232 -12 147 68 q 62 148 62 292 l 62 683 l 234 683 l 234 299 q 234 217 273 174 q 312 131 386 131 q 460 131 499 174 q 537 217 537 299 l 537 683 z"},"o":{"x_min":0,"x_max":558,"ha":558,"o":"m 175 231 q 175 172 203 136 q 232 101 279 101 q 326 101 354 136 q 383 172 383 231 q 383 290 354 326 q 326 362 279 362 q 232 362 204 326 q 175 290 175 231 z m 25 231 q 25 338 95 405 q 166 472 279 472 q 392 472 463 405 q 534 337 534 231 q 534 125 463 58 q 393 -9 279 -9 q 166 -9 95 58 q 25 125 25 231 z"},"N":{"x_min":0,"x_max":819,"ha":819,"o":"m 236 429 l 236 0 l 67 0 l 67 683 l 217 683 l 583 276 l 583 683 l 752 683 l 752 0 l 618 0 z"},"+":{"x_min":0,"x_max":833,"ha":833,"o":"m 367 596 l 466 596 l 466 347 l 709 347 l 709 250 l 466 250 l 466 0 l 367 0 l 367 250 l 124 250 l 124 347 l 367 347 z"},"G":{"x_min":0,"x_max":742,"ha":742,"o":"m 690 80 q 627 33 557 10 q 487 -12 404 -12 q 323 -12 256 12 q 188 37 139 84 q 87 133 60 199 q 33 265 33 341 q 33 500 139 598 q 246 695 421 695 q 485 695 547 680 q 610 665 675 633 l 675 483 q 607 518 545 535 q 484 552 430 552 q 327 552 268 496 q 209 439 209 341 q 209 245 265 188 q 321 131 416 131 q 441 131 466 136 q 491 142 516 152 l 516 238 l 422 238 l 422 366 l 690 366 z"},"q":{"x_min":0,"x_max":572,"ha":572,"o":"m 373 332 q 352 347 332 354 q 311 361 290 361 q 240 361 209 325 q 178 290 178 232 q 178 173 209 139 q 240 105 293 105 q 314 105 334 112 q 354 120 373 134 z m 373 34 q 346 12 315 1 q 283 -10 245 -10 q 148 -10 87 57 q 27 124 27 231 q 27 339 87 406 q 148 473 245 473 q 285 473 317 461 q 350 450 379 425 l 379 463 l 519 463 l 519 -227 l 373 -227 z"},"d":{"x_min":0,"x_max":572,"ha":572,"o":"m 373 132 l 373 330 q 354 344 334 352 q 314 359 293 359 q 240 359 209 324 q 178 290 178 231 q 178 173 209 138 q 240 103 290 103 q 312 103 332 110 q 352 117 373 132 z m 379 38 q 350 14 317 2 q 285 -10 245 -10 q 147 -10 87 57 q 27 123 27 231 q 27 339 87 406 q 148 473 245 473 q 283 473 315 462 q 346 451 373 429 l 373 683 l 519 683 l 519 0 l 379 0 z"},"1":{"x_min":0,"x_max":545,"ha":545,"o":"m 195 0 l 195 683 l 350 683 l 350 0 z"},"5":{"x_min":0,"x_max":545,"ha":545,"o":"m 50 157 q 86 134 124 122 q 161 110 196 110 q 255 110 287 136 q 319 163 319 213 q 319 258 282 285 q 245 313 183 313 q 164 313 142 309 q 120 306 91 298 l 91 683 l 460 683 l 460 547 l 228 547 l 228 427 q 233 428 240 428 q 246 428 257 428 q 363 428 424 369 q 485 311 485 208 q 485 106 416 47 q 347 -12 228 -12 q 173 -12 130 -3 q 87 5 50 24 z"}}}
